<?xml version="1.0" standalone="no"?>
<!DOCTYPE svg PUBLIC "-//W3C//DTD SVG 20010904//EN"
 "http://www.w3.org/TR/2001/REC-SVG-20010904/DTD/svg10.dtd">
<svg version="1.0" xmlns="http://www.w3.org/2000/svg"
 width="111.000000pt" height="91.000000pt" viewBox="0 0 111.000000 91.000000"
 preserveAspectRatio="xMidYMid meet">

<g transform="translate(0.000000,91.000000) scale(0.100000,-0.100000)"
fill="#000000" stroke="none">
<path d="M0 455 l0 -455 550 0 550 0 0 455 0 455 -550 0 -550 0 0 -455z m381
325 c0 -49 -8 -75 -23 -78 -11 -2 -15 2 -13 15 2 10 6 52 9 93 3 41 6 77 7 80
2 6 19 -90 20 -110z m257 26 c2 -52 -1 -87 -7 -91 -7 -4 -11 3 -11 17 0 13 -5
29 -12 36 -9 9 -9 15 0 24 7 7 12 31 12 55 0 78 15 44 18 -41z m-346 -128 c-7
-7 -12 -8 -12 -2 0 14 12 26 19 19 2 -3 -1 -11 -7 -17z m313 -25 c33 -20 75
-52 94 -72 31 -34 34 -35 41 -16 7 18 9 18 15 3 4 -9 13 -14 21 -11 8 3 18 -5
24 -22 13 -35 13 -48 -2 -39 -8 5 -7 1 2 -10 13 -17 14 -17 21 1 7 17 8 17 8
-2 1 -17 3 -17 11 -5 8 13 10 13 10 -2 0 -11 5 -15 15 -12 21 8 45 -14 45 -40
0 -22 44 -56 73 -56 8 0 18 -11 21 -25 4 -14 12 -25 18 -25 7 0 6 -5 -4 -13
-8 -6 -31 -46 -50 -87 -33 -72 -34 -77 -19 -100 9 -13 21 -43 27 -67 l11 -43
-489 0 -488 0 0 71 c0 55 4 75 18 87 9 10 13 14 8 10 -18 -14 -26 -8 -26 17 0
22 4 25 28 23 15 -1 34 2 41 7 8 4 50 9 94 11 44 1 100 8 124 15 33 9 47 9 56
0 12 -12 53 -15 60 -3 14 21 -8 65 -44 88 -22 13 -39 30 -39 38 0 16 42 46 65
46 19 0 19 24 0 40 -32 26 -14 76 48 129 20 18 37 39 37 46 0 8 5 26 10 40 12
32 29 29 115 -22z m-360 -40 c-39 -91 -38 -126 5 -181 20 -24 20 -27 5 -30 -9
-2 -22 1 -28 7 -14 14 -67 15 -67 1 0 -6 -32 -10 -75 -10 l-75 0 0 64 c0 36 5
68 10 71 6 3 10 -2 11 -12 0 -14 2 -14 9 5 5 12 14 23 20 23 14 2 19 4 60 20
19 7 39 12 43 11 5 -1 6 6 2 17 -5 16 0 20 22 24 60 9 66 8 58 -10z m485 -23
c0 -5 -5 -10 -11 -10 -5 0 -7 5 -4 10 3 6 8 10 11 10 2 0 4 -4 4 -10z m140
-95 c0 -8 -2 -15 -4 -15 -2 0 -6 7 -10 15 -3 8 -1 15 4 15 6 0 10 -7 10 -15z"/>
<path d="M630 420 c0 -5 11 -10 25 -10 14 0 25 5 25 10 0 6 -11 10 -25 10 -14
0 -25 -4 -25 -10z"/>
<path d="M735 291 c-4 -15 -15 -21 -34 -21 -16 0 -33 -6 -38 -12 -17 -22 -30
-91 -25 -135 4 -44 22 -50 22 -8 0 13 5 27 10 30 6 4 10 16 8 28 -3 20 1 22
40 20 24 -1 60 -11 79 -23 20 -11 37 -19 39 -17 2 2 -1 19 -6 38 -6 18 -10 51
-10 71 0 33 -3 38 -24 38 -13 0 -31 3 -39 6 -10 3 -18 -2 -22 -15z m62 -17
c-3 -3 -12 -4 -19 -1 -8 3 -5 6 6 6 11 1 17 -2 13 -5z"/>
</g>
</svg>
